<mxfile host="app.diagrams.net" modified="2023-07-18T19:38:56.300Z" agent="Mozilla/5.0 (Macintosh; Intel Mac OS X 10_15_7) AppleWebKit/537.36 (KHTML, like Gecko) Chrome/108.0.0.0 Safari/537.36" etag="J5XK54iXJZAtBlh3-pXi" version="21.6.1" type="github">
  <diagram name="Page-1" id="NluPfHtw34qFlWvtU7-2">
    <mxGraphModel dx="2074" dy="1078" grid="1" gridSize="10" guides="1" tooltips="1" connect="1" arrows="1" fold="1" page="1" pageScale="1" pageWidth="827" pageHeight="1169" math="0" shadow="0">
      <root>
        <mxCell id="0" />
        <mxCell id="1" parent="0" />
        <mxCell id="KGVp0kTd9f9NLEWqaIj9-1" value="1. startExercise()" style="html=1;verticalAlign=bottom;endArrow=block;edgeStyle=elbowEdgeStyle;elbow=horizontal;curved=0;rounded=0;" parent="1" edge="1">
          <mxGeometry relative="1" as="geometry">
            <mxPoint x="60" y="270" as="sourcePoint" />
            <Array as="points">
              <mxPoint x="145" y="270" />
            </Array>
            <mxPoint as="offset" />
            <mxPoint x="240" y="270" as="targetPoint" />
          </mxGeometry>
        </mxCell>
        <mxCell id="KGVp0kTd9f9NLEWqaIj9-2" value="ExerciseService" style="shape=umlLifeline;perimeter=lifelinePerimeter;whiteSpace=wrap;html=1;container=1;dropTarget=0;collapsible=0;recursiveResize=0;outlineConnect=0;portConstraint=eastwest;newEdgeStyle={&quot;edgeStyle&quot;:&quot;elbowEdgeStyle&quot;,&quot;elbow&quot;:&quot;vertical&quot;,&quot;curved&quot;:0,&quot;rounded&quot;:0};" parent="1" vertex="1">
          <mxGeometry x="180" y="140" width="130" height="1140" as="geometry" />
        </mxCell>
        <mxCell id="KGVp0kTd9f9NLEWqaIj9-3" value="" style="html=1;points=[];perimeter=orthogonalPerimeter;outlineConnect=0;targetShapes=umlLifeline;portConstraint=eastwest;newEdgeStyle={&quot;edgeStyle&quot;:&quot;elbowEdgeStyle&quot;,&quot;elbow&quot;:&quot;vertical&quot;,&quot;curved&quot;:0,&quot;rounded&quot;:0};" parent="KGVp0kTd9f9NLEWqaIj9-2" vertex="1">
          <mxGeometry x="60" y="130" width="10" height="990" as="geometry" />
        </mxCell>
        <mxCell id="KGVp0kTd9f9NLEWqaIj9-4" value="6. processExercise()" style="html=1;align=left;spacingLeft=2;endArrow=block;rounded=0;edgeStyle=orthogonalEdgeStyle;curved=0;rounded=0;" parent="KGVp0kTd9f9NLEWqaIj9-2" edge="1">
          <mxGeometry relative="1" as="geometry">
            <mxPoint x="70" y="569" as="sourcePoint" />
            <Array as="points">
              <mxPoint x="100" y="599" />
            </Array>
            <mxPoint x="75" y="599" as="targetPoint" />
          </mxGeometry>
        </mxCell>
        <mxCell id="KGVp0kTd9f9NLEWqaIj9-5" value="ExerciseRepository" style="shape=umlLifeline;perimeter=lifelinePerimeter;whiteSpace=wrap;html=1;container=0;dropTarget=0;collapsible=0;recursiveResize=0;outlineConnect=0;portConstraint=eastwest;newEdgeStyle={&quot;edgeStyle&quot;:&quot;elbowEdgeStyle&quot;,&quot;elbow&quot;:&quot;vertical&quot;,&quot;curved&quot;:0,&quot;rounded&quot;:0};" parent="1" vertex="1">
          <mxGeometry x="417" y="140" width="120" height="1140" as="geometry" />
        </mxCell>
        <mxCell id="KGVp0kTd9f9NLEWqaIj9-6" value="" style="html=1;points=[];perimeter=orthogonalPerimeter;outlineConnect=0;targetShapes=umlLifeline;portConstraint=eastwest;newEdgeStyle={&quot;edgeStyle&quot;:&quot;elbowEdgeStyle&quot;,&quot;elbow&quot;:&quot;vertical&quot;,&quot;curved&quot;:0,&quot;rounded&quot;:0};" parent="KGVp0kTd9f9NLEWqaIj9-5" vertex="1">
          <mxGeometry x="55" y="240" width="10" height="80" as="geometry" />
        </mxCell>
        <mxCell id="KGVp0kTd9f9NLEWqaIj9-7" value="2. getActiveExercise()" style="html=1;verticalAlign=bottom;endArrow=block;edgeStyle=elbowEdgeStyle;elbow=vertical;curved=0;rounded=0;" parent="KGVp0kTd9f9NLEWqaIj9-5" source="KGVp0kTd9f9NLEWqaIj9-2" edge="1">
          <mxGeometry x="-0.0107" relative="1" as="geometry">
            <mxPoint x="-457.5" y="240" as="sourcePoint" />
            <mxPoint x="61" y="240.00000000000023" as="targetPoint" />
            <Array as="points">
              <mxPoint x="-460" y="240" />
            </Array>
            <mxPoint as="offset" />
          </mxGeometry>
        </mxCell>
        <mxCell id="KGVp0kTd9f9NLEWqaIj9-11" value="3. return active exercise" style="html=1;verticalAlign=bottom;endArrow=open;dashed=1;endSize=8;edgeStyle=elbowEdgeStyle;elbow=horizontal;curved=0;rounded=0;" parent="1" edge="1">
          <mxGeometry relative="1" as="geometry">
            <mxPoint x="250" y="459" as="targetPoint" />
            <mxPoint x="480" y="459" as="sourcePoint" />
          </mxGeometry>
        </mxCell>
        <mxCell id="KGVp0kTd9f9NLEWqaIj9-12" value="HrEventBus" style="shape=umlLifeline;perimeter=lifelinePerimeter;whiteSpace=wrap;html=1;container=1;dropTarget=0;collapsible=0;recursiveResize=0;outlineConnect=0;portConstraint=eastwest;newEdgeStyle={&quot;edgeStyle&quot;:&quot;elbowEdgeStyle&quot;,&quot;elbow&quot;:&quot;vertical&quot;,&quot;curved&quot;:0,&quot;rounded&quot;:0};" parent="1" vertex="1">
          <mxGeometry x="690" y="140" width="100" height="1140" as="geometry" />
        </mxCell>
        <mxCell id="KGVp0kTd9f9NLEWqaIj9-13" value="" style="html=1;points=[];perimeter=orthogonalPerimeter;outlineConnect=0;targetShapes=umlLifeline;portConstraint=eastwest;newEdgeStyle={&quot;edgeStyle&quot;:&quot;elbowEdgeStyle&quot;,&quot;elbow&quot;:&quot;vertical&quot;,&quot;curved&quot;:0,&quot;rounded&quot;:0};" parent="KGVp0kTd9f9NLEWqaIj9-12" vertex="1">
          <mxGeometry x="45" y="410.5" width="10" height="80" as="geometry" />
        </mxCell>
        <mxCell id="KGVp0kTd9f9NLEWqaIj9-14" value="4. listen to HrEvent" style="html=1;verticalAlign=bottom;endArrow=block;edgeStyle=elbowEdgeStyle;elbow=vertical;curved=0;rounded=0;" parent="1" edge="1">
          <mxGeometry relative="1" as="geometry">
            <mxPoint x="250" y="550.2592592592591" as="sourcePoint" />
            <mxPoint x="740" y="550" as="targetPoint" />
          </mxGeometry>
        </mxCell>
        <mxCell id="KGVp0kTd9f9NLEWqaIj9-15" value="5. return HR event" style="html=1;verticalAlign=bottom;endArrow=open;dashed=1;endSize=8;edgeStyle=elbowEdgeStyle;elbow=vertical;curved=0;rounded=0;" parent="1" edge="1">
          <mxGeometry x="-0.0022" relative="1" as="geometry">
            <mxPoint x="250" y="631" as="targetPoint" />
            <mxPoint x="740" y="630" as="sourcePoint" />
            <Array as="points">
              <mxPoint x="580" y="631" />
            </Array>
            <mxPoint as="offset" />
          </mxGeometry>
        </mxCell>
        <mxCell id="KGVp0kTd9f9NLEWqaIj9-16" value="ExerciseEventBus" style="shape=umlLifeline;perimeter=lifelinePerimeter;whiteSpace=wrap;html=1;container=1;dropTarget=0;collapsible=0;recursiveResize=0;outlineConnect=0;portConstraint=eastwest;newEdgeStyle={&quot;edgeStyle&quot;:&quot;elbowEdgeStyle&quot;,&quot;elbow&quot;:&quot;vertical&quot;,&quot;curved&quot;:0,&quot;rounded&quot;:0};" parent="1" vertex="1">
          <mxGeometry x="880" y="140" width="100" height="1140" as="geometry" />
        </mxCell>
        <mxCell id="KGVp0kTd9f9NLEWqaIj9-17" value="" style="html=1;points=[];perimeter=orthogonalPerimeter;outlineConnect=0;targetShapes=umlLifeline;portConstraint=eastwest;newEdgeStyle={&quot;edgeStyle&quot;:&quot;elbowEdgeStyle&quot;,&quot;elbow&quot;:&quot;vertical&quot;,&quot;curved&quot;:0,&quot;rounded&quot;:0};" parent="KGVp0kTd9f9NLEWqaIj9-16" vertex="1">
          <mxGeometry x="45" y="661.5" width="10" height="88.5" as="geometry" />
        </mxCell>
        <mxCell id="KGVp0kTd9f9NLEWqaIj9-18" value="7. publishExerciseEvent()" style="html=1;verticalAlign=bottom;endArrow=block;edgeStyle=elbowEdgeStyle;elbow=vertical;curved=0;rounded=0;" parent="1" edge="1">
          <mxGeometry x="-0.0024" width="80" relative="1" as="geometry">
            <mxPoint x="250" y="801" as="sourcePoint" />
            <mxPoint x="929.5" y="801" as="targetPoint" />
            <mxPoint as="offset" />
          </mxGeometry>
        </mxCell>
        <mxCell id="KGVp0kTd9f9NLEWqaIj9-20" value="8. stopExercise()" style="html=1;verticalAlign=bottom;endArrow=block;edgeStyle=elbowEdgeStyle;elbow=horizontal;curved=0;rounded=0;" parent="1" edge="1">
          <mxGeometry relative="1" as="geometry">
            <mxPoint x="60" y="910" as="sourcePoint" />
            <Array as="points">
              <mxPoint x="145" y="910" />
            </Array>
            <mxPoint as="offset" />
            <mxPoint x="240" y="910" as="targetPoint" />
          </mxGeometry>
        </mxCell>
        <mxCell id="KGVp0kTd9f9NLEWqaIj9-22" value="" style="html=1;points=[];perimeter=orthogonalPerimeter;outlineConnect=0;targetShapes=umlLifeline;portConstraint=eastwest;newEdgeStyle={&quot;edgeStyle&quot;:&quot;elbowEdgeStyle&quot;,&quot;elbow&quot;:&quot;vertical&quot;,&quot;curved&quot;:0,&quot;rounded&quot;:0};" parent="1" vertex="1">
          <mxGeometry x="472.5" y="1028" width="10" height="80" as="geometry" />
        </mxCell>
        <mxCell id="KGVp0kTd9f9NLEWqaIj9-23" value="10. save Exercise" style="html=1;verticalAlign=bottom;endArrow=block;edgeStyle=elbowEdgeStyle;elbow=vertical;curved=0;rounded=0;" parent="1" edge="1" source="KGVp0kTd9f9NLEWqaIj9-3">
          <mxGeometry x="-0.0766" relative="1" as="geometry">
            <mxPoint x="245" y="1028" as="sourcePoint" />
            <mxPoint x="473.5" y="1028.0000000000002" as="targetPoint" />
            <Array as="points" />
            <mxPoint x="1" as="offset" />
          </mxGeometry>
        </mxCell>
        <mxCell id="KGVp0kTd9f9NLEWqaIj9-24" value="11. return saved exercise" style="html=1;verticalAlign=bottom;endArrow=open;dashed=1;endSize=8;edgeStyle=elbowEdgeStyle;elbow=horizontal;curved=0;rounded=0;" parent="1" edge="1">
          <mxGeometry relative="1" as="geometry">
            <mxPoint x="250.5" y="1108" as="targetPoint" />
            <mxPoint x="479.5" y="1107.25" as="sourcePoint" />
          </mxGeometry>
        </mxCell>
        <mxCell id="KGVp0kTd9f9NLEWqaIj9-25" value="" style="html=1;points=[];perimeter=orthogonalPerimeter;outlineConnect=0;targetShapes=umlLifeline;portConstraint=eastwest;newEdgeStyle={&quot;edgeStyle&quot;:&quot;elbowEdgeStyle&quot;,&quot;elbow&quot;:&quot;vertical&quot;,&quot;curved&quot;:0,&quot;rounded&quot;:0};" parent="1" vertex="1">
          <mxGeometry x="925.5" y="1149.5" width="10" height="88.5" as="geometry" />
        </mxCell>
        <mxCell id="KGVp0kTd9f9NLEWqaIj9-26" value="12. publishExerciseEvent()" style="html=1;verticalAlign=bottom;endArrow=block;edgeStyle=elbowEdgeStyle;elbow=vertical;curved=0;rounded=0;" parent="1" edge="1">
          <mxGeometry x="-0.0024" width="80" relative="1" as="geometry">
            <mxPoint x="250.5" y="1149" as="sourcePoint" />
            <mxPoint x="930" y="1149" as="targetPoint" />
            <mxPoint as="offset" />
          </mxGeometry>
        </mxCell>
        <mxCell id="KGVp0kTd9f9NLEWqaIj9-27" value="9. mark exercise done and process exercise" style="html=1;align=left;spacingLeft=2;endArrow=block;rounded=0;edgeStyle=orthogonalEdgeStyle;curved=0;rounded=0;" parent="1" edge="1">
          <mxGeometry relative="1" as="geometry">
            <mxPoint x="250" y="929" as="sourcePoint" />
            <Array as="points">
              <mxPoint x="280" y="959" />
            </Array>
            <mxPoint x="255" y="959" as="targetPoint" />
          </mxGeometry>
        </mxCell>
      </root>
    </mxGraphModel>
  </diagram>
</mxfile>
